<svg viewBox="0 0 200 200" xmlns="http://www.w3.org/2000/svg">
  <path fill="#3b82f6" d="M35,-52.1C44.7,-48,51.6,-36.8,55,-24.8C58.3,-12.9,58.2,-0.2,55.1,11.6C52.1,23.4,46.1,34.4,36.9,42.5C27.7,50.6,15.3,55.8,1.6,53.6C-12.1,51.4,-27.1,41.8,-38.3,29.9C-49.4,18,-56.7,3.9,-56,-9.6C-55.2,-23.1,-46.3,-36,-34.7,-43.3C-23.1,-50.7,-8.8,-52.4,3.3,-57C15.4,-61.6,30.8,-69.1,35,-52.1Z" transform="translate(100 100)" opacity="0.15" />
  <circle cx="100" cy="100" r="70" fill="#3b82f6" />
  <circle cx="100" cy="85" r="24" fill="#ffffff" />
  <path d="M62,142 C62,118 78,118 100,118 C122,118 138,118 138,142 Z" fill="#ffffff" />
</svg>
